# xmcd
#
# Track frame offsets: 
#        150
#        8902
#        19715
#        40394
#        58629
#        77794
#        108475
#        121674
#        133272
#        149456
#        173363
#        198024
#
# Disc length: 3040 seconds
#
# Revision: 0
# Processed by: cddbd v1.5.2PL0 Copyright (c) Steve Scherf et al.
# Submitted via: ExactAudioCopy v0.99pb5
#
DISCID=980bde0c
DTITLE=Climax Chicago Blues Band - A Lot Of Bottle
DYEAR=1970
DGENRE=British Blues Rock
TTITLE0=Country Hat
TTITLE1=Everyday
TTITLE2=Reap What I've Sowed
TTITLE3=Brief Case
TTITLE4=Alright Blue
TTITLE5=Seventh Son
TTITLE6=Please Don't Help Me
TTITLE7=Morning Noon And Night
TTITLE8=Long Lovin' Man
TTITLE9=Louisiana Blues
TTITLE10=Cut You Loose
TTITLE11=Spoonful
EXTD=
EXTT0=
EXTT1=
EXTT2=
EXTT3=
EXTT4=
EXTT5=
EXTT6=
EXTT7=
EXTT8=
EXTT9=
EXTT10=
EXTT11=
PLAYORDER=
